<svg class="ldi-ffpmcj" width="200px"  height="200px"  xmlns="http://www.w3.org/2000/svg" xmlns:xlink="http://www.w3.org/1999/xlink" viewBox="0 0 100 100" preserveAspectRatio="xMidYMid" style="background: none;"><!--?xml version="1.0" encoding="utf-8"?--><!--Generator: Adobe Illustrator 21.0.0, SVG Export Plug-In . SVG Version: 6.00 Build 0)--><svg version="1.1" id="圖層_1" xmlns="http://www.w3.org/2000/svg" xmlns:xlink="http://www.w3.org/1999/xlink" x="0px" y="0px" viewBox="0 0 100 100" style="transform-origin: 50px 50px 0px;" xml:space="preserve"><g style="transform-origin: 50px 50px 0px;"><g style="transform-origin: 50px 50px 0px; transform: scale(0.6);"><g style="transform-origin: 50px 50px 0px;"><g><style type="text/css" class="ld ld-fade" style="transform-origin: 50px 50px 0px; animation-duration: 1s; animation-delay: -1s; animation-direction: normal;">.st0{fill:#D1D1D1;} .st1{fill:#454545;} .st2{fill:#464646;} .st3{fill:#FFFFFF;}</style><g class="ld ld-fade" style="transform-origin: 50px 50px 0px; animation-duration: 1s; animation-delay: -0.928571s; animation-direction: normal;"><path class="st0" d="M89.835,44.719l-6.955-6.956c-0.402-0.402-1.717-1.643-3.256-2.98c0.176-1.032,0.08-2.087-0.294-3.119 c-0.6-1.65-1.792-2.942-2.878-3.987c-1.612-1.551-3.228-3.182-4.791-4.759c-2.305-2.326-4.688-4.731-7.175-7.004 c-1.801-1.645-4.565-3.897-7.762-4.462c-6.379-1.13-12.686-1.984-19.364-2.888c-2.469-0.334-4.966-0.672-7.5-1.029 C29.702,7.511,29.544,7.5,29.388,7.5c-1.046,0-2.045,0.487-2.69,1.334c-0.741,0.974-0.897,2.273-0.409,3.395 c0.127,0.293,0.173,0.54,0.187,0.637c-0.031,1.347,0.749,2.392,1.983,2.952c4.315,1.96,16.279,8.054,19.78,12.657 c2.38,3.13,0.098,7.483-0.504,8.513C42.004,42.723,35.06,49.824,28.34,56.696c-6.181,6.321-12.573,12.856-17.773,18.073 c-2.78,2.788-2.749,6.595,0.076,9.473c1.457,1.484,3.021,3.056,4.923,4.946c1.756,1.745,3.532,3.313,5.939,3.313 c2.429,0,4.244-1.612,6.042-3.408c8.991-8.98,30.878-31.37,35.553-36.192c0.624,0.595,1.212,1.135,1.669,1.556 c0.311,0.286,0.632,0.582,0.734,0.684l6.956,6.956c1.072,1.071,2.497,1.662,4.013,1.662c1.516,0,2.941-0.591,4.013-1.662 l9.351-9.351c1.072-1.072,1.663-2.497,1.663-4.014C91.497,47.215,90.907,45.79,89.835,44.719z" fill="rgb(209, 209, 209)" style="fill: rgb(209, 209, 209);"></path></g><g class="ld ld-fade" style="transform-origin: 50px 50px 0px; animation-duration: 1s; animation-delay: -0.857143s; animation-direction: normal;"><path class="st1" d="M61.218,50l13.451-13.256c2.549-2.445,1.237-4.37-0.819-6.348c-4.009-3.858-7.798-7.952-11.902-11.703 c-1.723-1.574-3.888-3.244-6.073-3.63c-8.693-1.541-17.474-2.592-26.745-3.899c0.45,1.033,0.468,1.861,0.468,1.861 s16.281,7.388,21.073,13.689c4.247,5.585-0.528,12.673-0.528,12.673L61.218,50z" fill="rgb(69, 69, 69)" style="fill: rgb(69, 69, 69);"></path></g><g class="ld ld-fade" style="transform-origin: 50px 50px 0px; animation-duration: 1s; animation-delay: -0.785714s; animation-direction: normal;"><path class="st1" d="M45.585,44.549c3.734,3.733,7.149,7.146,10.782,10.778c-0.669,0.733-21.646,21.849-31.466,31.658 c-3.213,3.209-4.068,3.214-7.21,0.09c-1.64-1.63-3.274-3.267-4.895-4.917c-1.505-1.533-1.628-3.18-0.095-4.719 C23.601,66.508,34.527,55.603,45.585,44.549z" fill="rgb(69, 69, 69)" style="fill: rgb(69, 69, 69);"></path></g><g class="ld ld-fade" style="transform-origin: 50px 50px 0px; animation-duration: 1s; animation-delay: -0.714286s; animation-direction: normal;"><path class="st1" d="M67.635,49.789c-0.896,0.896-0.896,2.349,0,3.245l6.956,6.956c0.896,0.896,2.349,0.896,3.246,0l9.351-9.351 c0.896-0.896,0.896-2.35,0-3.246l-6.955-6.956c-0.896-0.896-2.349-0.896-3.246,0L67.635,49.789z" fill="rgb(69, 69, 69)" style="fill: rgb(69, 69, 69);"></path></g><metadata xmlns:d="https://loading.io/stock/" class="ld ld-fade" style="transform-origin: 50px 50px 0px; animation-duration: 1s; animation-delay: -0.642857s; animation-direction: normal;">
<d:name class="ld ld-fade" style="transform-origin: 50px 50px 0px; animation-duration: 1s; animation-delay: -0.571429s; animation-direction: normal;">construction</d:name>
<d:tags class="ld ld-fade" style="transform-origin: 50px 50px 0px; animation-duration: 1s; animation-delay: -0.5s; animation-direction: normal;">hammer,worker,build,tool,construction,map</d:tags>
<d:license class="ld ld-fade" style="transform-origin: 50px 50px 0px; animation-duration: 1s; animation-delay: -0.428571s; animation-direction: normal;">cc0</d:license>
<d:slug class="ld ld-fade" style="transform-origin: 50px 50px 0px; animation-duration: 1s; animation-delay: -0.357143s; animation-direction: normal;">ffpmcj</d:slug>
</metadata></g></g></g></g><style type="text/css" class="ld ld-fade" style="transform-origin: 50px 50px 0px; animation-duration: 1s; animation-delay: -0.285714s; animation-direction: normal;">path,ellipse,circle,rect,polygon,polyline,line { stroke-width: 0; }@keyframes ld-fade {
  0% {
    opacity: 1;
  }
  100% {
    opacity: 0;
  }
}
@-webkit-keyframes ld-fade {
  0% {
    opacity: 1;
  }
  100% {
    opacity: 0;
  }
}
.ld.ld-fade {
  -webkit-animation: ld-fade 1s infinite linear;
  animation: ld-fade 1s infinite linear;
}
</style></svg></svg>